# Blender v2.79 (sub 0) OBJ File: ''
# www.blender.org
mtllib untitled.mtl
o cube.001
v 0.437500 -0.500000 -0.500000
v 0.187500 -0.500000 -0.500000
v 0.187500 -0.250000 -0.500000
v 0.437500 -0.250000 -0.500000
v 0.437500 -0.500000 0.500000
v 0.437500 -0.250000 0.500000
v 0.187500 -0.500000 0.500000
v 0.187500 -0.250000 0.500000
v -0.187500 -0.500000 -0.500000
v -0.437500 -0.500000 -0.500000
v -0.437500 -0.250000 -0.500000
v -0.187500 -0.250000 -0.500000
v -0.187500 -0.500000 0.500000
v -0.187500 -0.250000 0.500000
v -0.437500 -0.500000 0.500000
v -0.437500 -0.250000 0.500000
v 0.500000 -0.312500 -0.437500
v -0.500000 -0.312500 -0.437500
v -0.500000 -0.062500 -0.437500
v 0.500000 -0.062500 -0.437500
v 0.500000 -0.312500 -0.187500
v 0.500000 -0.062500 -0.187500
v -0.500000 -0.312500 -0.187500
v -0.500000 -0.062500 -0.187500
v 0.500000 -0.312500 0.187500
v -0.500000 -0.312500 0.187500
v -0.500000 -0.062500 0.187500
v 0.500000 -0.062500 0.187500
v 0.500000 -0.312500 0.437500
v 0.500000 -0.062500 0.437500
v -0.500000 -0.312500 0.437500
v -0.500000 -0.062500 0.437500
vt 0.250000 0.375000
vt 0.312500 0.375000
vt 0.312500 0.437500
vt 0.250000 0.437500
vt 0.000000 0.375000
vt 0.000000 0.437500
vt 0.562500 0.375000
vt 0.625000 0.375000
vt 0.625000 0.437500
vt 0.562500 0.437500
vt 0.312500 0.687500
vt 0.250000 0.687500
vt 0.375000 0.437500
vt 0.312500 0.437500
vt 0.312500 0.687500
vt 0.375000 0.687500
vt 0.250000 0.687500
vt 0.312500 0.687500
vt 0.312500 0.750000
vt 0.250000 0.750000
vt 0.000000 0.687500
vt 0.000000 0.750000
vt 0.562500 0.687500
vt 0.625000 0.687500
vt 0.625000 0.750000
vt 0.562500 0.750000
vt 0.312500 1.000000
vt 0.250000 1.000000
vt 0.375000 0.750000
vt 0.312500 0.750000
vt 0.312500 1.000000
vt 0.375000 1.000000
vt 0.437500 0.750000
vt 0.687500 0.750000
vt 0.687500 0.812500
vt 0.437500 0.812500
vt 0.375000 0.750000
vt 0.375000 0.812500
vt 0.750000 0.750000
vt 1.000000 0.750000
vt 1.000000 0.812500
vt 0.750000 0.812500
vt 0.687500 0.875000
vt 0.437500 0.875000
vt 0.937500 0.812500
vt 0.687500 0.812500
vt 0.687500 0.875000
vt 0.937500 0.875000
vt 0.437500 0.875000
vt 0.687500 0.875000
vt 0.687500 0.937500
vt 0.437500 0.937500
vt 0.375000 0.875000
vt 0.375000 0.937500
vt 0.750000 0.875000
vt 1.000000 0.875000
vt 1.000000 0.937500
vt 0.750000 0.937500
vt 0.687500 1.000000
vt 0.437500 1.000000
vt 0.937500 0.937500
vt 0.687500 0.937500
vt 0.687500 1.000000
vt 0.937500 1.000000
vn 0.0000 0.0000 -1.0000
vn 1.0000 0.0000 0.0000
vn 0.0000 -0.0000 1.0000
vn -1.0000 0.0000 0.0000
vn 0.0000 1.0000 0.0000
vn 0.0000 -1.0000 -0.0000
usemtl m_0.001
s 1
f 1/1/1 2/2/1 3/3/1 4/4/1
f 5/5/2 1/1/2 4/4/2 6/6/2
f 7/7/3 5/8/3 6/9/3 8/10/3
f 2/2/4 7/7/4 8/10/4 3/3/4
f 8/11/5 6/12/5 4/4/5 3/3/5
f 2/13/6 1/14/6 5/15/6 7/16/6
f 9/17/1 10/18/1 11/19/1 12/20/1
f 13/21/2 9/17/2 12/20/2 14/22/2
f 15/23/3 13/24/3 14/25/3 16/26/3
f 10/18/4 15/23/4 16/26/4 11/19/4
f 16/27/5 14/28/5 12/20/5 11/19/5
f 10/29/6 9/30/6 13/31/6 15/32/6
f 17/33/1 18/34/1 19/35/1 20/36/1
f 21/37/2 17/33/2 20/36/2 22/38/2
f 23/39/3 21/40/3 22/41/3 24/42/3
f 18/34/4 23/39/4 24/42/4 19/35/4
f 24/43/5 22/44/5 20/36/5 19/35/5
f 18/45/6 17/46/6 21/47/6 23/48/6
f 25/49/1 26/50/1 27/51/1 28/52/1
f 29/53/2 25/49/2 28/52/2 30/54/2
f 31/55/3 29/56/3 30/57/3 32/58/3
f 26/50/4 31/55/4 32/58/4 27/51/4
f 32/59/5 30/60/5 28/52/5 27/51/5
f 26/61/6 25/62/6 29/63/6 31/64/6
